<?xml version="1.0" encoding="iso-8859-1"?>
<!-- Generator: Adobe Illustrator 19.0.0, SVG Export Plug-In . SVG Version: 6.00 Build 0)  -->
<svg version="1.1" id="Layer_1" xmlns="http://www.w3.org/2000/svg" xmlns:xlink="http://www.w3.org/1999/xlink" x="0px" y="0px"
	 viewBox="0 0 502 502" style="enable-background:new 0 0 502 502;" xml:space="preserve">
<g>
	<g>
		<path style="fill:#FCC54E;" d="M456.014,247.031h-38.167v143.946h38.167c19.875,0,35.986-16.112,35.986-35.986v-71.973
			C492,263.142,475.888,247.031,456.014,247.031z"/>
		<path style="fill:#FCC54E;" d="M45.986,247.031h38.167v143.946H45.986C26.112,390.976,10,374.865,10,354.99v-71.973
			C10,263.142,26.112,247.031,45.986,247.031z"/>
	</g>
	<g>
		<path d="M413.547,174.632c5.017-2.31,7.211-8.25,4.9-13.266c-4.233-9.193-9.798-17.72-16.538-25.342
			c-3.659-4.138-9.978-4.526-14.115-0.867c-4.138,3.658-4.525,9.978-0.867,14.115c5.445,6.158,9.938,13.042,13.354,20.46
			c1.687,3.662,5.306,5.819,9.089,5.819C410.771,175.551,412.192,175.256,413.547,174.632z"/>
		<path d="M94.154,204.302c0-45.919,37.358-83.278,83.277-83.278h147.137c13.356,0,26.656,3.279,38.463,9.483
			c4.892,2.57,10.935,0.688,13.504-4.201c2.568-4.889,0.688-10.935-4.201-13.504c-14.664-7.705-31.182-11.778-47.766-11.778H177.432
			c-56.947,0-103.277,46.33-103.277,103.278v32.729H45.986C20.63,237.031,0,257.66,0,283.017v71.973
			c0,25.357,20.63,45.986,45.986,45.986h38.168c5.522,0,10-4.477,10-10V204.302z M20,354.99v-71.973
			c0-14.329,11.657-25.986,25.986-25.986h28.168v123.945H45.986C31.657,380.976,20,369.319,20,354.99z"/>
		<path d="M407.846,390.976c0,5.523,4.478,10,10,10h38.168c25.356,0,45.986-20.629,45.986-45.986v-71.973
			c0-25.357-20.63-45.986-45.986-45.986h-28.168v-32.729c0-5.523-4.478-10-10-10s-10,4.477-10,10V390.976z M482,354.99
			c0,14.329-11.657,25.986-25.986,25.986h-28.168V257.031h28.168c14.329,0,25.986,11.657,25.986,25.986V354.99z"/>
		<path d="M56,312.024c-5.522,0-10,4.477-10,10v37c0,5.523,4.478,10,10,10s10-4.477,10-10v-37C66,316.501,61.522,312.024,56,312.024
			z"/>
		<path d="M56,269.649c-5.522,0-10,4.477-10,10v9.375c0,5.523,4.478,10,10,10s10-4.477,10-10v-9.375
			C66,274.126,61.522,269.649,56,269.649z"/>
	</g>
</g>
<g>
</g>
<g>
</g>
<g>
</g>
<g>
</g>
<g>
</g>
<g>
</g>
<g>
</g>
<g>
</g>
<g>
</g>
<g>
</g>
<g>
</g>
<g>
</g>
<g>
</g>
<g>
</g>
<g>
</g>
</svg>
