<svg  viewBox="0 0 74 74" fill="none" xmlns="http://www.w3.org/2000/svg">
<path fill-rule="evenodd" clip-rule="evenodd" d="M43.4773 0C42.9434 0 42.4476 0.114417 41.99 0.266966C42.9625 0.915312 43.4964 1.77343 43.7634 2.74595C43.7825 2.87943 43.8206 2.97478 43.8397 3.10825C43.8588 3.22267 43.8778 3.33709 43.8778 3.4515C43.9541 5.12958 43.4392 5.33934 43.0769 6.33093C42.5239 7.60856 42.6764 8.98153 43.3439 10.0875C43.4011 10.221 43.4773 10.3736 43.5727 10.5071C42.8481 5.68258 46.8716 4.95796 47.6153 3.4515C47.6725 2.13573 46.5856 1.25856 45.7275 0.648347C44.9075 0.152553 44.1638 0 43.4773 0ZM49.5413 1.08694C49.465 1.52552 49.5222 1.41111 49.5032 1.63994C49.4841 1.79249 49.4841 1.98319 49.4651 2.13574C49.427 2.28829 49.3888 2.44084 49.3316 2.5934C49.2935 2.74595 49.2363 2.8985 49.1791 3.05105C49.1027 3.20361 49.0456 3.33709 48.9693 3.48964C48.9121 3.56595 48.874 3.64219 48.8167 3.71847C48.7786 3.77568 48.7404 3.83288 48.7023 3.89009C48.607 4.02358 48.5116 4.15706 48.4163 4.27147C48.3019 4.38589 48.2065 4.51937 48.073 4.61472V4.63381C47.9586 4.72916 47.8442 4.84358 47.7107 4.93892C47.3103 5.24402 46.8526 5.47285 46.4331 5.75889C46.2996 5.85423 46.1661 5.93051 46.0517 6.04493C45.9182 6.14027 45.8038 6.23561 45.6894 6.35003C45.5559 6.46444 45.4606 6.57886 45.3462 6.71234C45.2508 6.82676 45.1364 6.96024 45.0601 7.09373C44.9648 7.2272 44.8694 7.36069 44.7932 7.49417C44.7169 7.64672 44.6597 7.78021 44.5834 7.93276C44.5262 8.08531 44.469 8.2188 44.4309 8.37135C44.3736 8.54297 44.3355 8.69552 44.2974 8.84808C44.2783 8.92439 44.2783 9.0197 44.2593 9.09598C44.2402 9.17228 44.2402 9.24852 44.2212 9.32481C44.2212 9.47736 44.2021 9.64898 44.2021 9.80153C44.2021 9.91595 44.2021 10.0304 44.2212 10.1448C44.2212 10.2973 44.2403 10.4499 44.2784 10.6215C44.2975 10.774 44.3356 10.9266 44.3737 11.0792C44.4309 11.2317 44.4691 11.3843 44.5263 11.5368C44.5644 11.6322 44.6216 11.7275 44.6598 11.8038L40.2739 10.1066C39.5302 9.89687 38.8055 9.70619 38.0618 9.53456C37.6614 9.43922 37.2609 9.34387 36.8605 9.24852C35.7163 9.0197 34.5531 8.84808 33.3899 8.73367C33.3518 8.73367 33.3327 8.71457 33.2946 8.71457C32.1504 8.60016 31.0254 8.54295 29.8812 8.54295C29.0422 8.54295 28.2031 8.58106 27.3832 8.63829C26.2199 8.7146 25.0567 8.86712 23.8935 9.05781C23.6075 9.09592 23.3214 9.15316 23.0354 9.21037C22.4443 9.32478 21.8722 9.45827 21.3192 9.59175C21.0332 9.66806 20.7471 9.7443 20.4611 9.82057C20.1751 9.93499 19.9081 10.0685 19.6411 10.1829C19.4314 10.2782 19.2216 10.3736 19.0118 10.4689C18.9737 10.488 18.9355 10.488 18.9165 10.507C18.7258 10.6024 18.5542 10.6786 18.3826 10.774C18.3254 10.7931 18.2872 10.8121 18.2491 10.8312C18.0393 10.9266 17.8296 11.041 17.6579 11.1363C17.5244 11.1935 17.391 11.2698 17.2766 11.327C17.2193 11.3651 17.1431 11.4033 17.1049 11.4223C16.9333 11.5177 16.7617 11.613 16.6091 11.7084C16.4375 11.8037 16.285 11.8991 16.1515 11.9944C16.018 12.0898 15.8845 12.166 15.7701 12.2614C15.751 12.2805 15.732 12.2805 15.7129 12.2995C15.5985 12.3758 15.465 12.4711 15.3506 12.5665C15.3506 12.5665 15.3315 12.5856 15.3125 12.6046C15.2171 12.6809 15.1218 12.7571 15.0264 12.8334C14.9883 12.8525 14.9501 12.8906 14.912 12.9097C14.8167 12.986 14.7213 13.0813 14.626 13.1576C14.6069 13.1957 14.5688 13.2148 14.5497 13.2339C14.4353 13.3483 14.3208 13.4437 14.2064 13.5581C14.1873 13.5581 14.1873 13.5772 14.1683 13.5962C14.0539 13.6915 13.9395 13.806 13.8251 13.9204C13.806 13.9395 13.806 13.9585 13.787 13.9585C13.6916 14.0538 13.5963 14.1492 13.5009 14.2636C13.4628 14.3017 13.4056 14.3399 13.3675 14.378C13.2721 14.4924 13.1577 14.6068 13.0433 14.7212C13.0242 14.7593 12.9861 14.7784 12.967 14.8166C12.8144 14.9691 12.6809 15.1217 12.5284 15.2742C12.5093 15.2933 12.4903 15.3124 12.4712 15.3315C12.1661 15.6556 11.8419 15.9798 11.4987 16.2658C11.1554 16.5709 10.7931 16.857 10.4308 17.1049C10.0494 17.3718 9.68709 17.6007 9.28664 17.8295C8.90526 18.0393 8.5048 18.2299 8.08529 18.4016C7.68483 18.5732 7.26532 18.7257 6.8458 18.8592C6.04489 19.0308 5.22492 19.355 4.51937 19.4122C4.36682 19.4122 4.19519 19.4503 4.04264 19.4694C3.87102 19.5075 3.71847 19.5457 3.56592 19.5839C3.41337 19.6411 3.26081 19.6983 3.10826 19.7555C2.95571 19.8127 2.80316 19.889 2.6506 19.9652C2.51712 20.0606 2.36457 20.1369 2.23108 20.2322C2.0976 20.3275 1.96411 20.442 1.8497 20.5564C1.71622 20.6517 1.58273 20.7852 1.46832 20.8996C1.3539 21.0331 1.23949 21.1475 1.14414 21.281C1.0488 21.4335 0.934384 21.567 0.858104 21.7196C0.762761 21.8531 0.667418 22.0056 0.591138 22.1582C0.514831 22.3298 0.438588 22.4823 0.38138 22.654C0.324172 22.8065 0.266965 22.9781 0.209757 23.1498C0.171649 23.3023 0.13345 23.4549 0.114414 23.6074C0.114414 23.6265 0.0953158 23.6455 0.0953158 23.6646C0.0572071 23.8363 0.0572073 24.0651 0.0381081 24.1795C0.01901 24.313 0 24.4274 0 24.5609C0 24.6372 8.29302e-08 24.7325 0.0190982 24.8088C0.0381964 24.9423 0.057206 25.0567 0.0954048 25.1711C0.133513 25.2855 0.171711 25.3999 0.228883 25.5143V25.5334C0.28609 25.6479 0.362371 25.7623 0.438641 25.8767C0.514948 25.9911 0.591201 26.1055 0.686544 26.2199C0.781887 26.3153 0.896303 26.4297 1.01072 26.525C1.12513 26.6394 1.23955 26.7348 1.37303 26.8301C1.83069 27.2306 1.9451 27.3641 2.53624 27.6692C2.63159 27.7264 2.72694 27.7645 2.84135 27.8217C2.86045 27.8217 2.87946 27.8408 2.89856 27.8408C2.89856 27.8789 2.89856 27.898 2.91766 27.9362C2.93676 28.0887 2.97487 28.2413 3.013 28.3938C3.05111 28.5655 3.10836 28.718 3.16556 28.8515C3.22277 28.9659 3.26091 29.0803 3.31811 29.1947C3.33721 29.2329 3.35622 29.2711 3.37532 29.2901C3.45163 29.4426 3.52787 29.5761 3.60414 29.7096C3.69949 29.8431 3.79484 29.9766 3.89018 30.1101C3.98552 30.2245 4.09994 30.358 4.21435 30.4724C4.32877 30.5868 4.44319 30.6821 4.57667 30.7965C4.57667 30.7965 4.59577 30.8156 4.61478 30.8156C4.7292 30.911 4.84361 31.0063 4.95803 31.0826C5.09151 31.178 5.22499 31.2542 5.37754 31.3305C5.51103 31.4068 5.66358 31.4831 5.81613 31.5403C5.93055 31.5975 6.06403 31.6356 6.19751 31.6738C6.21662 31.6929 6.23562 31.6929 6.27382 31.7119C6.35013 31.731 6.44543 31.75 6.52171 31.7691C6.46451 32.7988 6.44541 33.7713 6.59802 34.1146C6.76964 34.4959 7.60868 33.3327 8.44772 31.9979C8.3333 33.3137 8.25702 34.8583 8.44772 35.3159C8.65748 35.7926 9.80162 34.3053 10.7932 32.6653C24.3132 29.538 36.6509 38.8818 37.9476 52.0776C37.6997 50.0182 35.1635 48.874 34.0003 49.1601C33.4282 50.5712 32.4557 52.3827 30.892 53.5078C31.0255 52.2493 30.9683 50.9526 30.7013 49.694C30.2818 51.4484 29.4618 53.0883 28.3368 54.4994C26.5252 54.6329 24.7136 53.7557 23.7602 52.4399C23.6839 52.3827 23.6648 52.2683 23.6076 52.192C23.5504 52.0586 23.4932 51.9251 23.4551 51.7916C23.3979 51.6581 23.3597 51.5246 23.3407 51.3912C23.3216 51.2577 23.3216 51.1242 23.3216 50.9716C23.3216 50.8763 23.3216 50.7809 23.3216 50.6856C23.3407 50.5521 23.3788 50.4186 23.4169 50.2851C23.455 50.1517 23.4932 50.0182 23.5504 49.8847C23.6267 49.7512 23.6839 49.6177 23.7792 49.4842C24.1034 48.5689 24.1034 47.8252 23.5123 47.3866C23.3978 47.3103 23.2834 47.2532 23.1499 47.1959C23.0736 47.1768 22.9783 47.1387 22.902 47.1196C22.8448 47.1005 22.8067 47.0815 22.7495 47.0624C22.616 47.0243 22.4825 46.9861 22.349 46.9671C22.2155 46.929 22.0821 46.9099 21.9486 46.9099C21.8151 46.8908 21.6625 46.8718 21.5291 46.8718C21.4337 46.8718 21.3384 46.8909 21.243 46.8909C21.0905 46.8909 20.957 46.91 20.8235 46.9481C20.69 46.9672 20.5565 46.9862 20.4231 47.0244C20.2896 47.0625 20.1561 47.1007 20.0226 47.1579C19.8891 47.2151 19.7747 47.2723 19.6412 47.3295C19.5268 47.3867 19.4124 47.463 19.2789 47.5202C14.8358 50.4187 17.4864 57.2073 20.5184 59.1714C19.3743 59.3811 18.2111 59.6291 17.8869 59.8769C17.8678 59.896 17.8488 59.9151 17.8488 59.9151C18.6687 60.4108 19.5268 60.8304 20.4231 61.1927C21.6435 61.5931 22.9402 61.9554 23.5123 62.108V62.1271C25.095 62.4513 26.6968 62.5657 28.3177 62.4703C36.7653 61.8792 43.6874 55.4529 44.9459 46.9863C44.984 47.1579 45.0222 47.3104 45.0603 47.482C45.1176 47.8253 45.1938 48.1876 45.232 48.5499V48.569C45.2701 48.7406 45.2892 48.9123 45.3083 49.0648V49.1411C45.3274 49.3127 45.3464 49.4844 45.3464 49.6369C45.3655 49.8467 45.3845 50.0564 45.3845 50.2662V50.5713C45.3845 50.6666 45.4036 50.7811 45.4036 50.8764C45.4036 50.9908 45.3845 51.1052 45.3845 51.2196V51.4866C45.3845 51.6201 45.3654 51.7345 45.3654 51.868C45.3654 51.9443 45.3654 52.0205 45.3463 52.1159C45.3463 52.2494 45.3272 52.3829 45.3272 52.5354C45.3081 52.5926 45.3081 52.6498 45.3081 52.707C45.289 52.8596 45.27 52.9931 45.2509 53.1456C45.2509 53.2028 45.2509 53.26 45.2318 53.3172C45.2127 53.5079 45.1746 53.6796 45.1555 53.8703V53.8894V53.9085C45.1174 54.0801 45.0792 54.2708 45.041 54.4424V54.4996C45.0029 54.6712 44.9647 54.8428 44.9266 55.0144C44.9266 55.0335 44.9075 55.0717 44.9075 55.0908C44.8694 55.2624 44.8312 55.434 44.7741 55.6056V55.6628C44.7169 55.8535 44.6596 56.0251 44.6215 56.1968C44.6024 56.2159 44.6024 56.2349 44.6024 56.2349C44.5452 56.4256 44.488 56.6163 44.4308 56.8069C44.3545 56.9976 44.2973 57.1693 44.221 57.36C44.1447 57.5506 44.0875 57.7413 44.0113 57.913C43.935 58.1036 43.8587 58.2753 43.7824 58.466H43.7633C43.687 58.6376 43.6108 58.8283 43.5154 58.9999C43.4963 59.0571 43.4773 59.0952 43.4582 59.1334C43.4391 59.1525 43.4391 59.1715 43.4201 59.1906C42.1806 61.6886 40.35 63.8816 38.0617 65.5978C37.9092 65.6931 37.7566 65.8075 37.604 65.922C37.5659 65.9601 37.5087 65.9792 37.4706 66.0173C37.3371 66.1126 37.2036 66.208 37.051 66.3033L37.1082 66.4178H37.1273C37.3943 66.3797 37.6613 66.3415 37.9282 66.3033H37.9474C38.4432 66.227 38.9389 66.1317 39.4347 66.0364C39.5682 66.0173 39.7208 65.9792 39.8543 65.941C39.9496 65.9219 40.0259 65.9029 40.1212 65.8838C40.2547 65.8647 40.3882 65.8266 40.5217 65.8075C40.6361 65.7694 40.7505 65.7503 40.8649 65.7122C42.7718 65.2545 44.6215 64.6252 46.3949 63.8815C43.363 68.0195 39.3013 71.3566 34.5531 73.5496C36.746 73.397 38.9389 73.0347 41.0556 72.4245C48.7405 70.1553 55.2049 64.9875 59.0759 58.0273C58.2941 62.4323 56.5397 66.6275 53.9463 70.2887C55.796 69.0683 57.4931 67.6572 59.0377 66.0554C63.3092 61.5932 66.1124 55.9297 67.0658 49.8467C67.7142 52.8596 67.9049 55.9679 67.6188 59.038C81.3867 39.8354 68.763 19.9273 63.4808 14.6833C63.4617 14.6452 63.4427 14.6261 63.4427 14.588C63.4236 14.6071 63.4236 14.6071 63.4236 14.6261C63.4236 14.607 63.4236 14.607 63.4045 14.588C63.4045 14.8168 63.3854 15.0456 63.3664 15.2745C63.3092 15.7131 63.252 16.1326 63.1757 16.5521C63.0804 16.9716 62.966 17.3911 62.8516 17.8107C62.7181 18.2111 62.5655 18.6306 62.3939 19.0311C62.2223 19.4125 62.0316 19.8129 61.8218 20.1943C61.6121 20.5566 61.3832 20.938 61.1353 21.2812C60.8874 21.6435 60.6205 21.9868 60.3535 22.311C60.0675 22.6542 59.7624 22.9593 59.4573 23.2644C59.2666 23.436 59.095 23.5886 58.9043 23.7411C58.7517 23.8746 58.6182 23.989 58.4657 24.1225C58.1224 24.3895 57.7792 24.6374 57.3978 24.8662C57.0355 25.095 56.6541 25.3239 56.2727 25.5146C55.8723 25.7053 55.4718 25.8769 55.0714 26.0485C54.6709 26.201 54.2514 26.3345 53.8319 26.4489C53.4124 26.5634 52.9738 26.6587 52.5543 26.735C52.1157 26.8113 51.6771 26.8494 51.2576 26.8875C50.9525 26.9066 50.6474 26.9257 50.3422 26.9257C49.9037 26.9257 49.4651 26.8875 49.0455 26.8493C48.607 26.8112 48.1684 26.754 47.7488 26.6586C47.3103 26.5823 46.8907 26.4679 46.4712 26.3345H46.4521C46.8716 26.2964 47.2912 26.2582 47.7107 26.1819C48.1493 26.1056 48.5688 26.0103 48.9883 25.8959C49.4078 25.7815 49.8273 25.648 50.2278 25.4954C50.6473 25.3429 51.0478 25.1522 51.4291 24.9615C51.8296 24.7708 52.1919 24.561 52.5733 24.3322C52.9356 24.0843 53.2979 23.8364 53.6412 23.5694C53.9844 23.3025 54.3086 23.0165 54.6137 22.7113C54.9379 22.4253 55.2239 22.1011 55.5099 21.777C55.796 21.4337 56.0629 21.0905 56.3108 20.7472C56.3489 20.69 56.3871 20.6138 56.4252 20.5565C56.6159 20.2514 56.8066 19.9463 56.9782 19.6412C57.188 19.2598 57.3787 18.8785 57.5503 18.478C57.7219 18.0776 57.8745 17.6771 58.008 17.2576C58.1415 16.8571 58.2368 16.4376 58.3321 16.0181C58.4085 15.5795 58.4847 15.16 58.5228 14.7405C58.5609 14.3019 58.5991 13.8633 58.5991 13.4438C58.5991 13.1387 58.58 12.8336 58.561 12.5285C58.5229 12.0899 58.4657 11.6704 58.4085 11.2508C58.3322 10.8122 58.2369 10.3927 58.1224 9.97321C57.989 9.57276 57.8555 9.15324 57.7029 8.7528C57.5504 8.35234 57.3597 7.95189 57.169 7.5705C56.9592 7.18912 56.7495 6.80774 56.5206 6.44544C56.2728 6.08313 56.0248 5.73988 55.7579 5.39663C55.4719 5.07246 55.1858 4.74829 54.8807 4.42411C54.7282 4.27156 54.5565 4.09994 54.3849 3.94739C53.5268 3.27997 52.6306 2.65069 51.7343 2.07862C51.6008 2.00231 51.4864 1.94513 51.3529 1.88792C50.7236 1.48748 50.1324 1.27762 49.5413 1.08694Z" fill="#EA2845"/>
</svg>
