<?xml version="1.0" encoding="iso-8859-1"?>
<!-- Generator: Adobe Illustrator 19.0.0, SVG Export Plug-In . SVG Version: 6.00 Build 0)  -->
<svg version="1.1" id="Layer_1" xmlns="http://www.w3.org/2000/svg" xmlns:xlink="http://www.w3.org/1999/xlink" x="0px" y="0px"
	 viewBox="0 0 504 504" style="enable-background:new 0 0 504 504;" xml:space="preserve">
<path style="fill:#E36D60;" d="M58.4,279.6H66v-24C66,154.4,148.8,72,250,72s188,82.4,188,183.6v24l0,0c10.4,0,20,2.8,28,11.6v-32.4
	c0-118-95.6-214.4-214-214.4s-214,96-214,214.4v32.4C42,282.4,48,279.6,58.4,279.6z"/>
<path style="fill:#F4AEA8;" d="M75.2,283.6H58.4c-12.4,0-21.6,7.2-23.2,18.8c0,4,2.8,2.4,2.8,3.2v123.6c0,13.6,6.8,30.4,20.4,30.4
	h8.4h4h4c13.6,0,26.8-16.8,26.8-30.4V305.6c0-0.8-2.8,0.4-2.8-3.2C98,290.8,87.6,283.6,75.2,283.6z"/>
<path style="fill:#BC3F2C;" d="M30,307.6h-3.6c-13.6,0-24.4,9.2-24.4,22.8v79.2C2,423.2,12.8,436,26.4,436h3.2c0,0,4-6,4-6.4V306
	C34,305.2,30,307.6,30,307.6z"/>
<path style="fill:#CCCCCC;" d="M30,304c0.4,0.4,0.8,0.8,1.2,0.8V304l0,0H30z"/>
<path style="fill:#F4AEA8;" d="M467.2,306.4c-1.2-12-16.8-22.8-29.2-22.8h-16.8c-12.4,0-20.8,11.2-22,22.8c0,4,2.8,2.4,2.8,3.2
	v123.6c0,13.6,6,26.4,19.6,26.4h7.6h4h5.2c13.6,0,28-12.8,28-26.4V309.6C466,309.2,467.2,310.4,467.2,306.4z"/>
<path style="fill:#CCCCCC;" d="M466.4,307.6h2C468,303.6,466.4,307.6,466.4,307.6z"/>
<path style="fill:#BC3F2C;" d="M474,307.6h-1.6L470,306v123.6c0,0.4,0.4,6.4,0.4,6.4h3.2c13.6,0,24.4-13.6,24.4-27.2V332
	C498.4,318,487.6,307.6,474,307.6z"/>
<g>
	<path style="fill:#CCCCCC;" d="M470,429.2V305.6c0-0.8-3.6,1.6-3.6,1.6l0,0c-0.4,0-0.8,1.6-1.2,2v126h1.2
		C466.4,435.6,470,429.6,470,429.2z"/>
	<path style="fill:#CCCCCC;" d="M466.4,304h-1.2l0,0v0.8C465.6,304.8,466,304.4,466.4,304z"/>
	<path style="fill:#CCCCCC;" d="M66.8,279.6L66.8,279.6h16c-2.4,0-5.2,0-8,0H66.8z"/>
	<path style="fill:#CCCCCC;" d="M421.6,279.6c-2.8,0-5.6,0-8,0h15.6l0,0H421.6z"/>
</g>
<path d="M468,307.6c-2.4,0-4-1.6-4-4v-44.8c0-117.2-95.2-212.4-212-212.4S40,141.6,40,258.8v44.8c0,2.4-1.6,4-4,4s-4-1.6-4-4v-44.8
	c0-121.6,98.8-220.4,220-220.4s220,98.8,220,220.4v44.8C472,306,470.4,307.6,468,307.6z"/>
<path d="M75.6,465.6H60.4c-16,0-28.4-13.6-28.4-31.2V307.2c0-17.2,12-29.6,28.4-29.6h15.2c17.6,0,32.4,13.6,32.4,29.6v127.2
	C108,450.8,92.4,465.6,75.6,465.6z M60.4,285.6c-12,0-20.4,8.8-20.4,21.6v127.2c0,13.2,8.8,23.2,20.4,23.2h15.2
	c12.8,0,24.4-11.2,24.4-23.2V307.2c0-12.8-12.8-21.6-24.4-21.6H60.4z"/>
<path d="M34,441.6h-7.6C9.2,441.6,0,424.8,0,408.4v-76.8c0-18,10.8-30,26.4-30H34c2.4,0,4,1.6,4,4s-1.6,4-4,4h-7.6
	c-13.6,0-18.4,11.2-18.4,22v76.8c0,12.4,6.4,25.2,18.4,25.2H34c2.4,0,4,1.6,4,4S36.4,441.6,34,441.6z"/>
<path d="M68,459.6c-2.4,0-4-1.6-4-4v-140c0-2.4,1.6-4,4-4s4,1.6,4,4v140C72,458,70.4,459.6,68,459.6z"/>
<path d="M439.6,465.6h-15.2c-16,0-28.4-13.6-28.4-31.2V307.2c0-17.2,12-29.6,28.4-29.6h15.2c17.6,0,32.4,13.6,32.4,29.6v127.2
	C472,450.8,456.4,465.6,439.6,465.6z M424.4,285.6c-12,0-20.4,8.8-20.4,21.6v127.2c0,13.2,8.8,23.2,20.4,23.2h15.2
	c12.8,0,24.4-11.2,24.4-23.2V307.2c0-12.8-12.8-21.6-24.4-21.6H424.4z"/>
<path d="M473.6,441.6H470c-2.4,0-4-1.6-4-4s1.6-4,4-4h3.6c12.8,0,22.4-13.2,22.4-25.2v-76.8c0-12-10-22-22.4-22H470
	c-2.4,0-4-1.6-4-4s1.6-4,4-4h3.6c16.8,0,30.4,13.6,30.4,30v76.8C504,426,489.6,441.6,473.6,441.6z"/>
<path d="M436,459.6c-2.4,0-4-1.6-4-4v-140c0-2.4,1.6-4,4-4s4,1.6,4,4v140C440,458,438.4,459.6,436,459.6z"/>
<path d="M436,283.6c-2.4,0-4-1.6-4-4v-24c0-98-80.8-177.6-180-177.6S72,157.6,72,255.6v24c0,2.4-1.6,4-4,4s-4-1.6-4-4v-24
	C64,153.2,148.4,70,252,70s188,83.2,188,185.6v24C440,282,438.4,283.6,436,283.6z"/>
<g>
</g>
<g>
</g>
<g>
</g>
<g>
</g>
<g>
</g>
<g>
</g>
<g>
</g>
<g>
</g>
<g>
</g>
<g>
</g>
<g>
</g>
<g>
</g>
<g>
</g>
<g>
</g>
<g>
</g>
</svg>
